<svg width="350" height="350" viewBox="0 0 350 350" fill="none" xmlns="http://www.w3.org/2000/svg">
<path d="M285 303.378C299 314.378 289.5 328.544 282 331.378H315.5V236.378L161 154.878L161.5 194.378C195.167 224.711 266.6 287.778 285 303.378Z" fill="url(#paint0_linear_3_37)"/>
<path d="M227.586 253.378C252.799 275.475 276.271 295.884 285.759 303.869C299.164 314.322 291.203 327.633 283.891 331.378H32C61.5 294 79.5 273.978 101 271.5C122.5 269.022 140 277 140 277C140 277 158.923 285.274 168.633 286.339C194.852 289.215 220.824 266.241 227.586 253.378Z" fill="url(#paint1_linear_3_37)"/>
<path d="M230 18.3776C244.066 16.8598 271.524 19.2846 293.716 37.4748C318.249 57.584 325.057 86.7272 325.397 98.8371C327.906 127.263 315.198 152.148 296.805 169.537C274 188.878 255.268 194.09 236 194.378L161.386 155.079L161 154.878L161.593 155.079C184.187 163.403 203.474 161.378 218.144 151.428C226.5 145.76 234.214 136.771 237.605 124.85C240.989 112.956 238.928 98.5977 224.045 83.715C216.61 76.2799 208.874 73.9898 201.5 72.8776C194.121 71.7649 186.705 72.3861 180 75.3776C167.049 81.1559 155.918 91.7402 149.5 100.878C157.491 86.8859 164.272 74.8045 169.5 65.6066C186.612 28.9949 217.176 18.542 230 18.3776Z" fill="url(#paint2_linear_3_37)"/>
<path d="M230.765 18.3776H88.7649L26.7649 225.378C24.0982 234.711 22.2649 251.378 38.2649 256.878C53.4053 262.082 61.7649 253.878 65.7649 248.378L72.7649 235.378C96.2649 194.378 148.665 102.878 170.265 64.8776C187.465 28.0776 217.765 18.5443 230.765 18.3776Z" fill="url(#paint3_linear_3_37)"/>
<defs>
<linearGradient id="paint0_linear_3_37" x1="316" y1="331.378" x2="172" y2="171.878" gradientUnits="userSpaceOnUse">
<stop stop-color="#A0DAEF"/>
<stop offset="0.5" stop-color="#207FC9"/>
<stop offset="1" stop-color="#0B3670"/>
</linearGradient>
<linearGradient id="paint1_linear_3_37" x1="32" y1="292.378" x2="293" y2="292.378" gradientUnits="userSpaceOnUse">
<stop stop-color="#7ECBE9"/>
<stop offset="0.5" stop-color="#1F80CA"/>
<stop offset="1" stop-color="#04263C"/>
</linearGradient>
<linearGradient id="paint2_linear_3_37" x1="201.5" y1="39.3776" x2="290.5" y2="181.378" gradientUnits="userSpaceOnUse">
<stop stop-color="#083068"/>
<stop offset="0.5" stop-color="#0C94D2"/>
<stop offset="1" stop-color="#8CD1EC"/>
</linearGradient>
<linearGradient id="paint3_linear_3_37" x1="214" y1="-0.622375" x2="15" y2="258.378" gradientUnits="userSpaceOnUse">
<stop stop-color="#A1DAF0"/>
<stop offset="0.311185" stop-color="#45B3DE"/>
<stop offset="0.602132" stop-color="#2A69BA"/>
<stop offset="1" stop-color="#0C356F"/>
</linearGradient>
</defs>
</svg>
